<svg width="1673" height="438" viewBox="0 0 1673 438" fill="none" xmlns="http://www.w3.org/2000/svg">
<path d="M380.3 178.25L388.1 142.565H448.55L455.375 110.975C462.785 76.85 483.65 63.2 522.845 63.2H589.925L582.125 98.885H525.575C510.365 98.885 503.735 104.345 501.005 117.215L495.74 142.565H570.23L562.43 178.25H487.94L452.84 344H405.65L440.75 178.25H380.3ZM667.959 63.2L615.894 308.315H651.189L643.584 344H513.714L521.514 308.315H568.704L613.359 98.495H576.894L584.499 63.2H667.959ZM663.105 142.565H708.54L734.085 290.96H737.205L825.15 142.565H873.9L872.73 148.415L730.575 374.615C707.76 411.47 688.845 422 644.19 422H610.65L618.645 384.95H650.04C668.175 384.95 676.365 380.66 684.75 367.79L701.13 343.025L661.935 148.415L663.105 142.565ZM874.79 142.565H913.205L911.645 297.005H914.765L986.33 142.565H1033.32L1039.37 297.005H1042.49L1106.64 142.565H1147.4L1146.42 148.415L1060.82 344H1007.97L1001.73 192.68H998.615L928.61 344H876.35L873.62 148.415L874.79 142.565ZM1116.78 264.635C1116.78 205.94 1152.27 137.885 1237.68 137.885C1303.4 137.885 1331.87 184.88 1316.66 250.01L1315.29 255.86H1160.66C1156.56 289.985 1171.77 313.19 1209.41 313.19C1239.83 313.19 1255.82 294.08 1262.64 280.04H1305.15L1304.57 285.89C1294.82 312.02 1264.98 348.68 1206.48 348.68C1151.1 348.68 1116.78 318.65 1116.78 264.635ZM1167.68 221.54H1278.44C1283.31 195.215 1270.83 172.985 1233.98 172.985C1197.9 172.985 1175.67 195.605 1167.68 221.54ZM1320.01 264.635C1320.01 205.94 1355.5 137.885 1440.91 137.885C1506.62 137.885 1535.09 184.88 1519.88 250.01L1518.52 255.86H1363.88C1359.79 289.985 1375 313.19 1412.63 313.19C1443.05 313.19 1459.04 294.08 1465.87 280.04H1508.38L1507.79 285.89C1498.04 312.02 1468.21 348.68 1409.71 348.68C1354.33 348.68 1320.01 318.65 1320.01 264.635ZM1370.9 221.54H1481.66C1486.54 195.215 1474.06 172.985 1437.2 172.985C1401.13 172.985 1378.9 195.605 1370.9 221.54ZM1655.05 63.2L1602.99 308.315H1638.28L1630.68 344H1500.81L1508.61 308.315H1555.8L1600.45 98.495H1563.99L1571.59 63.2H1655.05Z" fill="white"/>
<path d="M380.3 178.25L388.1 142.565H448.55L455.375 110.975C462.785 76.85 483.65 63.2 522.845 63.2H589.925L582.125 98.885H525.575C510.365 98.885 503.735 104.345 501.005 117.215L495.74 142.565H570.23L562.43 178.25H487.94L452.84 344H405.65L440.75 178.25H380.3ZM667.959 63.2L615.894 308.315H651.189L643.584 344H513.714L521.514 308.315H568.704L613.359 98.495H576.894L584.499 63.2H667.959ZM663.105 142.565H708.54L734.085 290.96H737.205L825.15 142.565H873.9L872.73 148.415L730.575 374.615C707.76 411.47 688.845 422 644.19 422H610.65L618.645 384.95H650.04C668.175 384.95 676.365 380.66 684.75 367.79L701.13 343.025L661.935 148.415L663.105 142.565ZM874.79 142.565H913.205L911.645 297.005H914.765L986.33 142.565H1033.32L1039.37 297.005H1042.49L1106.64 142.565H1147.4L1146.42 148.415L1060.82 344H1007.97L1001.73 192.68H998.615L928.61 344H876.35L873.62 148.415L874.79 142.565ZM1116.78 264.635C1116.78 205.94 1152.27 137.885 1237.68 137.885C1303.4 137.885 1331.87 184.88 1316.66 250.01L1315.29 255.86H1160.66C1156.56 289.985 1171.77 313.19 1209.41 313.19C1239.83 313.19 1255.82 294.08 1262.64 280.04H1305.15L1304.57 285.89C1294.82 312.02 1264.98 348.68 1206.48 348.68C1151.1 348.68 1116.78 318.65 1116.78 264.635ZM1167.68 221.54H1278.44C1283.31 195.215 1270.83 172.985 1233.98 172.985C1197.9 172.985 1175.67 195.605 1167.68 221.54ZM1320.01 264.635C1320.01 205.94 1355.5 137.885 1440.91 137.885C1506.62 137.885 1535.09 184.88 1519.88 250.01L1518.52 255.86H1363.88C1359.79 289.985 1375 313.19 1412.63 313.19C1443.05 313.19 1459.04 294.08 1465.87 280.04H1508.38L1507.79 285.89C1498.04 312.02 1468.21 348.68 1409.71 348.68C1354.33 348.68 1320.01 318.65 1320.01 264.635ZM1370.9 221.54H1481.66C1486.54 195.215 1474.06 172.985 1437.2 172.985C1401.13 172.985 1378.9 195.605 1370.9 221.54ZM1655.05 63.2L1602.99 308.315H1638.28L1630.68 344H1500.81L1508.61 308.315H1555.8L1600.45 98.495H1563.99L1571.59 63.2H1655.05Z" fill="#EDFCF5"/>
<path d="M305.142 190.068C304.291 190.161 303.679 190.932 303.763 191.784C304.196 196.148 304.414 200.486 304.426 204.786L301.714 209.305L301.711 209.303C297.385 216.736 293.519 223.23 290.005 228.912L264.372 229.037C263.798 229.04 263.453 229.637 263.765 230.089C263.765 230.089 267.653 241.59 269.28 241.607C270.566 241.62 271.427 241.612 271.854 241.608C271.967 241.607 272.049 241.607 272.101 241.607H281.812C280.815 243.07 279.847 244.455 278.903 245.766C272.709 254.375 267.933 259.306 263.61 262.299C255.588 267.855 247.871 267.899 227.659 268.012H227.657L217.8 268.067C217.754 268.059 217.707 268.055 217.659 268.055L213.248 268.077C212.939 268.078 212.664 268.263 212.564 268.537L206.82 284.236C206.657 284.68 207.011 285.141 207.511 285.139L217.476 285.09V285.103L226.561 285.052C227.955 285.044 229.326 285.04 230.677 285.037H230.679C247.738 284.994 261.471 284.959 274.408 275.999C281.157 271.325 287.3 264.557 293.968 255.291C294.504 254.546 295.029 253.813 295.548 253.087C281.935 288.539 253.617 317.256 217.231 330.877C216.561 331.128 216.141 331.8 216.22 332.51L217.757 346.292C217.866 347.272 218.855 347.9 219.786 347.576C284.37 325.091 327.324 260.627 320.237 189.975C320.151 189.124 319.386 188.505 318.536 188.599L305.142 190.068Z" fill="#90DAB8"/>
<path d="M311.619 158.2C312.595 158.093 313.226 157.11 312.909 156.18C290.734 91.0619 225.986 47.6455 154.986 54.7621C154.135 54.8474 153.516 55.6151 153.61 56.4657L155.103 69.8575C155.198 70.7068 155.968 71.3174 156.818 71.2333C161.565 70.764 166.28 70.5483 170.95 70.5755L175.467 73.2859L175.466 73.2892C182.898 77.6152 189.392 81.481 195.074 84.9955L195.199 110.629C195.202 111.203 195.798 111.547 196.25 111.235C196.25 111.235 207.752 107.348 207.768 105.72C207.781 104.434 207.774 103.573 207.77 103.147C207.769 103.034 207.768 102.951 207.768 102.9V93.1884C209.231 94.1856 210.616 95.1539 211.928 96.0977C220.536 102.292 225.468 107.068 228.461 111.39C234.017 119.413 234.06 127.131 234.173 147.344L234.229 157.201C234.221 157.247 234.217 157.294 234.217 157.342L234.238 161.753C234.24 162.062 234.425 162.336 234.699 162.437L250.398 168.181C250.841 168.344 251.303 167.99 251.3 167.49L251.252 157.525L251.265 157.525L251.213 148.44C251.205 147.046 251.201 145.675 251.198 144.324C251.156 127.263 251.121 113.53 242.161 100.592C237.487 93.8432 230.719 87.7001 221.453 81.0328C221.195 80.8475 220.939 80.6635 220.684 80.4805C255.235 94.5798 283.067 122.756 296.218 158.689C296.464 159.363 297.138 159.789 297.852 159.71L311.619 158.2Z" fill="#90DAB8"/>
<path d="M120.06 62.4774C120.992 62.152 121.982 62.7807 122.091 63.7613L123.628 77.5471C123.707 78.2566 123.288 78.9282 122.62 79.1793C87.0738 92.5342 59.246 120.302 45.3349 154.675C45.6931 154.174 46.0551 153.67 46.4219 153.16C53.0893 143.894 59.2323 137.126 65.9813 132.452C78.9191 123.492 92.6522 123.457 109.712 123.415L110.011 123.414C111.265 123.411 112.537 123.407 113.828 123.4L122.914 123.348V123.361L132.879 123.313C133.379 123.31 133.732 123.771 133.57 124.215L127.825 139.914C127.725 140.188 127.451 140.373 127.142 140.375L122.731 140.396C122.683 140.396 122.635 140.392 122.59 140.384L112.733 140.44C92.5194 140.553 84.8019 140.596 76.7792 146.152C72.4568 149.145 67.6806 154.077 61.4869 162.685C60.543 163.997 59.5748 165.382 58.5776 166.845H68.2885C68.3403 166.845 68.4228 166.844 68.5359 166.843C68.9623 166.839 69.8231 166.832 71.1092 166.845C72.7367 166.861 76.6245 178.363 76.6245 178.363C76.9361 178.815 76.5917 179.411 76.0176 179.414L50.3846 179.539C46.8701 185.221 43.0044 191.715 38.6784 199.148L38.6751 199.146L35.627 204.226L35.5749 204.159C35.5532 208.499 35.7411 212.877 36.1474 217.284C36.2253 218.128 35.6188 218.891 34.776 218.988L21.3869 220.527C20.5312 220.626 19.7583 220.001 19.6773 219.144C13.0395 148.894 55.8302 84.9173 120.06 62.4774Z" fill="#90DAB8"/>
<path d="M106.077 247.176C106.351 247.276 106.536 247.551 106.538 247.86L106.559 252.271C106.559 252.319 106.555 252.366 106.547 252.412L106.603 262.269C106.716 282.482 106.759 290.2 112.315 298.222C115.308 302.545 120.24 307.321 128.848 313.515C130.16 314.459 131.545 315.427 133.008 316.424V306.713C133.008 306.661 133.007 306.579 133.006 306.466C133.002 306.039 132.995 305.179 133.008 303.892C133.024 302.265 144.526 298.377 144.526 298.377C144.978 298.066 145.574 298.41 145.577 298.984L145.702 324.617C151.384 328.132 157.878 331.997 165.31 336.324L165.309 336.327L170.388 339.375L170.323 339.426C174.526 339.411 178.764 339.199 183.028 338.782C183.877 338.699 184.647 339.31 184.741 340.158L186.234 353.55C186.329 354.401 185.709 355.169 184.857 355.254C113.601 362.322 48.6699 318.5 26.7957 252.944C26.4869 252.018 27.1119 251.045 28.0812 250.933L41.8021 249.355C42.5225 249.272 43.2041 249.704 43.4483 250.387C56.8214 287.778 86.0484 316.89 122.255 330.679C121.291 329.993 120.318 329.296 119.323 328.58C110.057 321.913 103.289 315.77 98.615 309.02C89.6551 296.082 89.6204 282.349 89.5778 265.289C89.5745 263.938 89.571 262.567 89.563 261.173L89.5113 252.087H89.5245L89.4757 242.123C89.4735 241.622 89.9346 241.269 90.3782 241.431L106.077 247.176Z" fill="#90DAB8"/>
</svg>
