<svg width="256" height="265" viewBox="0 0 256 265" fill="none" xmlns="http://www.w3.org/2000/svg">
<path d="M0 50C0 22.3857 22.3858 0 50 0H205.839C233.453 0 255.839 22.3858 255.839 50V214.232C255.839 241.846 233.453 264.232 205.839 264.232H50C22.3858 264.232 0 241.846 0 214.232V50Z" fill="url(#paint0_linear_168_17)"/>
<path d="M0 50C0 22.3857 22.3858 0 50 0H205.839C233.453 0 255.839 22.3858 255.839 50V214.232C255.839 241.846 233.453 264.232 205.839 264.232H50C22.3858 264.232 0 241.846 0 214.232V50Z" fill="url(#paint1_linear_168_17)" fill-opacity="0.65"/>
<path d="M0 50C0 22.3857 22.3858 0 50 0H205.839C233.453 0 255.839 22.3858 255.839 50V214.232C255.839 241.846 233.453 264.232 205.839 264.232H50C22.3858 264.232 0 241.846 0 214.232V50Z" fill="#6CE6AC" fill-opacity="0.2"/>
<mask id="path-2-outside-1_168_17" maskUnits="userSpaceOnUse" x="26.7979" y="31.1963" width="202" height="202" fill="black">
<rect fill="white" x="26.7979" y="31.1963" width="202" height="202"/>
<path d="M85.7698 160.58C85.7688 160.375 85.6465 160.194 85.465 160.127L75.0682 156.323C74.7744 156.215 74.469 156.449 74.4706 156.781L74.5029 163.38L74.4942 163.38L74.5284 169.397C74.5337 170.32 74.5359 171.228 74.5382 172.123C74.5665 183.421 74.5893 192.516 80.5231 201.084C83.6186 205.554 88.1006 209.622 94.2371 214.037C100.391 218.465 105.306 221.837 116.041 228.085H119.29L128.055 221.186L124.691 219.168L124.692 219.165C119.77 216.3 115.469 213.74 111.707 211.413L111.623 194.437C111.622 194.057 111.227 193.829 110.927 194.035C110.927 194.035 103.31 196.61 103.3 197.688C103.289 198.766 103.3 199.392 103.3 199.556L103.3 205.987C102.331 205.327 101.414 204.685 100.545 204.06C94.8441 199.958 91.5784 196.795 89.596 193.933C85.9164 188.62 85.8878 183.509 85.8131 170.123L85.7761 163.595C85.7815 163.564 85.7843 163.533 85.7841 163.501L85.7698 160.58Z"/>
<path d="M170.34 103.556C170.341 103.761 170.463 103.942 170.645 104.009L181.041 107.813C181.335 107.921 181.641 107.687 181.639 107.355L181.607 100.756L181.615 100.756L181.581 94.7391C181.576 93.8161 181.574 92.9078 181.571 92.0133C181.543 80.7152 181.52 71.6203 175.586 63.0521C172.491 58.5825 168.009 54.5142 161.872 50.0988C155.718 45.6705 150.804 42.2995 140.069 36.0513H136.82L128.055 42.9498L131.418 44.9684L131.417 44.9706C136.34 47.8355 140.64 50.3956 144.403 52.7231L144.486 69.6987C144.488 70.0789 144.883 70.3069 145.182 70.1005C145.182 70.1005 152.799 67.526 152.81 66.4481C152.821 65.3702 152.81 64.7435 152.81 64.5801L152.81 58.149C153.779 58.8092 154.696 59.4506 155.565 60.0756C161.266 64.1775 164.531 67.3406 166.514 70.203C170.193 75.5162 170.222 80.6271 170.296 94.0134L170.334 100.541C170.328 100.572 170.325 100.603 170.326 100.635L170.34 103.556Z"/>
<path d="M156.439 173.969C156.234 173.97 156.052 174.092 155.986 174.274L152.182 184.671C152.074 184.964 152.308 185.27 152.639 185.268L159.239 185.236L159.239 185.245L165.256 185.21C166.179 185.205 167.087 185.203 167.981 185.201C179.279 185.172 188.374 185.15 196.942 179.216C201.412 176.12 205.48 171.638 209.896 165.502C214.324 159.347 217.695 154.433 223.943 143.698V140.449L217.045 131.683L215.026 135.047L215.024 135.046C212.159 139.969 209.599 144.269 207.271 148.032L190.296 148.115C189.916 148.117 189.688 148.512 189.894 148.811C189.894 148.811 192.469 156.428 193.546 156.439C194.624 156.45 195.251 156.439 195.414 156.439L201.845 156.439C201.185 157.408 200.544 158.325 199.919 159.194C195.817 164.895 192.654 168.16 189.791 170.143C184.478 173.822 179.367 173.851 165.981 173.926L159.453 173.963C159.423 173.957 159.392 173.955 159.36 173.955L156.439 173.969Z"/>
<path d="M99.4148 89.398C99.6195 89.397 99.8012 89.2747 99.8676 89.0932L103.672 78.6963C103.78 78.4025 103.546 78.0971 103.214 78.0987L96.6151 78.131L96.615 78.1223L90.5981 78.1565C89.6752 78.1618 88.7669 78.164 87.8724 78.1663C76.5743 78.1946 67.4795 78.2174 58.9114 84.1513C54.4418 87.2467 50.3735 91.7288 45.9581 97.8654C41.5299 104.02 38.1588 108.934 31.9107 119.669V122.918L38.8092 131.683L40.8278 128.32L40.83 128.321C43.6949 123.398 46.2549 119.098 48.5824 115.335L65.558 115.252C65.9382 115.25 66.1661 114.855 65.9597 114.556C65.9597 114.556 63.3852 106.939 62.3073 106.928C61.2294 106.917 60.6028 106.928 60.4394 106.928L54.0082 106.928C54.6685 105.959 55.3098 105.042 55.9348 104.173C60.0368 98.4723 63.1998 95.2066 66.0622 93.2242C71.3754 89.5446 76.4863 89.516 89.8725 89.4413L96.4004 89.4043C96.4307 89.4097 96.4619 89.4124 96.4938 89.4123L99.4148 89.398Z"/>
<path d="M216.383 123.444C216.327 122.88 216.732 122.369 217.296 122.307L226.166 121.334C226.729 121.273 227.236 121.682 227.292 122.246C231.986 169.035 203.54 211.727 160.769 226.618C160.152 226.832 159.497 226.416 159.425 225.767L158.407 216.64C158.355 216.17 158.633 215.724 159.076 215.558C196.045 201.72 220.437 164.35 216.383 123.444Z"/>
<path d="M222.439 99.8651C222.649 100.481 222.232 101.132 221.585 101.203L212.468 102.203C211.995 102.255 211.549 101.973 211.386 101.527C197.733 64.2238 160.19 39.5435 119.068 43.6091C118.505 43.6647 117.995 43.2604 117.932 42.6979L116.944 33.8292C116.881 33.2659 117.291 32.7575 117.855 32.701C164.874 27.988 207.754 56.7405 222.439 99.8651Z"/>
<path d="M96.0703 38.6607C95.9979 38.0113 95.3421 37.595 94.7253 37.8105C52.1888 52.6713 23.8505 95.0396 28.2464 141.563C28.3 142.131 28.8119 142.544 29.3786 142.479L38.2455 141.46C38.8037 141.395 39.2054 140.891 39.1538 140.331C35.4076 99.7033 59.6928 62.67 96.4202 48.8713C96.8628 48.705 97.1403 48.2602 97.0879 47.7903L96.0703 38.6607Z"/>
<path d="M33.8118 162.616C33.1699 162.689 32.756 163.334 32.9605 163.947C47.4467 207.362 90.4473 236.383 137.636 231.702C138.201 231.646 138.612 231.137 138.549 230.574L137.56 221.705C137.498 221.143 136.988 220.739 136.425 220.794C95.1192 224.83 57.4415 199.867 43.9887 162.254C43.827 161.801 43.3756 161.516 42.8985 161.571L33.8118 162.616Z"/>
</mask>
<path d="M85.7698 160.58C85.7688 160.375 85.6465 160.194 85.465 160.127L75.0682 156.323C74.7744 156.215 74.469 156.449 74.4706 156.781L74.5029 163.38L74.4942 163.38L74.5284 169.397C74.5337 170.32 74.5359 171.228 74.5382 172.123C74.5665 183.421 74.5893 192.516 80.5231 201.084C83.6186 205.554 88.1006 209.622 94.2371 214.037C100.391 218.465 105.306 221.837 116.041 228.085H119.29L128.055 221.186L124.691 219.168L124.692 219.165C119.77 216.3 115.469 213.74 111.707 211.413L111.623 194.437C111.622 194.057 111.227 193.829 110.927 194.035C110.927 194.035 103.31 196.61 103.3 197.688C103.289 198.766 103.3 199.392 103.3 199.556L103.3 205.987C102.331 205.327 101.414 204.685 100.545 204.06C94.8441 199.958 91.5784 196.795 89.596 193.933C85.9164 188.62 85.8878 183.509 85.8131 170.123L85.7761 163.595C85.7815 163.564 85.7843 163.533 85.7841 163.501L85.7698 160.58Z" fill="#042A21"/>
<path d="M170.34 103.556C170.341 103.761 170.463 103.942 170.645 104.009L181.041 107.813C181.335 107.921 181.641 107.687 181.639 107.355L181.607 100.756L181.615 100.756L181.581 94.7391C181.576 93.8161 181.574 92.9078 181.571 92.0133C181.543 80.7152 181.52 71.6203 175.586 63.0521C172.491 58.5825 168.009 54.5142 161.872 50.0988C155.718 45.6705 150.804 42.2995 140.069 36.0513H136.82L128.055 42.9498L131.418 44.9684L131.417 44.9706C136.34 47.8355 140.64 50.3956 144.403 52.7231L144.486 69.6987C144.488 70.0789 144.883 70.3069 145.182 70.1005C145.182 70.1005 152.799 67.526 152.81 66.4481C152.821 65.3702 152.81 64.7435 152.81 64.5801L152.81 58.149C153.779 58.8092 154.696 59.4506 155.565 60.0756C161.266 64.1775 164.531 67.3406 166.514 70.203C170.193 75.5162 170.222 80.6271 170.296 94.0134L170.334 100.541C170.328 100.572 170.325 100.603 170.326 100.635L170.34 103.556Z" fill="#042A21"/>
<path d="M156.439 173.969C156.234 173.97 156.052 174.092 155.986 174.274L152.182 184.671C152.074 184.964 152.308 185.27 152.639 185.268L159.239 185.236L159.239 185.245L165.256 185.21C166.179 185.205 167.087 185.203 167.981 185.201C179.279 185.172 188.374 185.15 196.942 179.216C201.412 176.12 205.48 171.638 209.896 165.502C214.324 159.347 217.695 154.433 223.943 143.698V140.449L217.045 131.683L215.026 135.047L215.024 135.046C212.159 139.969 209.599 144.269 207.271 148.032L190.296 148.115C189.916 148.117 189.688 148.512 189.894 148.811C189.894 148.811 192.469 156.428 193.546 156.439C194.624 156.45 195.251 156.439 195.414 156.439L201.845 156.439C201.185 157.408 200.544 158.325 199.919 159.194C195.817 164.895 192.654 168.16 189.791 170.143C184.478 173.822 179.367 173.851 165.981 173.926L159.453 173.963C159.423 173.957 159.392 173.955 159.36 173.955L156.439 173.969Z" fill="#042A21"/>
<path d="M99.4148 89.398C99.6195 89.397 99.8012 89.2747 99.8676 89.0932L103.672 78.6963C103.78 78.4025 103.546 78.0971 103.214 78.0987L96.6151 78.131L96.615 78.1223L90.5981 78.1565C89.6752 78.1618 88.7669 78.164 87.8724 78.1663C76.5743 78.1946 67.4795 78.2174 58.9114 84.1513C54.4418 87.2467 50.3735 91.7288 45.9581 97.8654C41.5299 104.02 38.1588 108.934 31.9107 119.669V122.918L38.8092 131.683L40.8278 128.32L40.83 128.321C43.6949 123.398 46.2549 119.098 48.5824 115.335L65.558 115.252C65.9382 115.25 66.1661 114.855 65.9597 114.556C65.9597 114.556 63.3852 106.939 62.3073 106.928C61.2294 106.917 60.6028 106.928 60.4394 106.928L54.0082 106.928C54.6685 105.959 55.3098 105.042 55.9348 104.173C60.0368 98.4723 63.1998 95.2066 66.0622 93.2242C71.3754 89.5446 76.4863 89.516 89.8725 89.4413L96.4004 89.4043C96.4307 89.4097 96.4619 89.4124 96.4938 89.4123L99.4148 89.398Z" fill="#042A21"/>
<path d="M216.383 123.444C216.327 122.88 216.732 122.369 217.296 122.307L226.166 121.334C226.729 121.273 227.236 121.682 227.292 122.246C231.986 169.035 203.54 211.727 160.769 226.618C160.152 226.832 159.497 226.416 159.425 225.767L158.407 216.64C158.355 216.17 158.633 215.724 159.076 215.558C196.045 201.72 220.437 164.35 216.383 123.444Z" fill="#042A21"/>
<path d="M222.439 99.8651C222.649 100.481 222.232 101.132 221.585 101.203L212.468 102.203C211.995 102.255 211.549 101.973 211.386 101.527C197.733 64.2238 160.19 39.5435 119.068 43.6091C118.505 43.6647 117.995 43.2604 117.932 42.6979L116.944 33.8292C116.881 33.2659 117.291 32.7575 117.855 32.701C164.874 27.988 207.754 56.7405 222.439 99.8651Z" fill="#042A21"/>
<path d="M96.0703 38.6607C95.9979 38.0113 95.3421 37.595 94.7253 37.8105C52.1888 52.6713 23.8505 95.0396 28.2464 141.563C28.3 142.131 28.8119 142.544 29.3786 142.479L38.2455 141.46C38.8037 141.395 39.2054 140.891 39.1538 140.331C35.4076 99.7033 59.6928 62.67 96.4202 48.8713C96.8628 48.705 97.1403 48.2602 97.0879 47.7903L96.0703 38.6607Z" fill="#042A21"/>
<path d="M33.8118 162.616C33.1699 162.689 32.756 163.334 32.9605 163.947C47.4467 207.362 90.4473 236.383 137.636 231.702C138.201 231.646 138.612 231.137 138.549 230.574L137.56 221.705C137.498 221.143 136.988 220.739 136.425 220.794C95.1192 224.83 57.4415 199.867 43.9887 162.254C43.827 161.801 43.3756 161.516 42.8985 161.571L33.8118 162.616Z" fill="#042A21"/>
<path d="M85.7698 160.58C85.7688 160.375 85.6465 160.194 85.465 160.127L75.0682 156.323C74.7744 156.215 74.469 156.449 74.4706 156.781L74.5029 163.38L74.4942 163.38L74.5284 169.397C74.5337 170.32 74.5359 171.228 74.5382 172.123C74.5665 183.421 74.5893 192.516 80.5231 201.084C83.6186 205.554 88.1006 209.622 94.2371 214.037C100.391 218.465 105.306 221.837 116.041 228.085H119.29L128.055 221.186L124.691 219.168L124.692 219.165C119.77 216.3 115.469 213.74 111.707 211.413L111.623 194.437C111.622 194.057 111.227 193.829 110.927 194.035C110.927 194.035 103.31 196.61 103.3 197.688C103.289 198.766 103.3 199.392 103.3 199.556L103.3 205.987C102.331 205.327 101.414 204.685 100.545 204.06C94.8441 199.958 91.5784 196.795 89.596 193.933C85.9164 188.62 85.8878 183.509 85.8131 170.123L85.7761 163.595C85.7815 163.564 85.7843 163.533 85.7841 163.501L85.7698 160.58Z" stroke="#042A21" stroke-width="2" mask="url(#path-2-outside-1_168_17)"/>
<path d="M170.34 103.556C170.341 103.761 170.463 103.942 170.645 104.009L181.041 107.813C181.335 107.921 181.641 107.687 181.639 107.355L181.607 100.756L181.615 100.756L181.581 94.7391C181.576 93.8161 181.574 92.9078 181.571 92.0133C181.543 80.7152 181.52 71.6203 175.586 63.0521C172.491 58.5825 168.009 54.5142 161.872 50.0988C155.718 45.6705 150.804 42.2995 140.069 36.0513H136.82L128.055 42.9498L131.418 44.9684L131.417 44.9706C136.34 47.8355 140.64 50.3956 144.403 52.7231L144.486 69.6987C144.488 70.0789 144.883 70.3069 145.182 70.1005C145.182 70.1005 152.799 67.526 152.81 66.4481C152.821 65.3702 152.81 64.7435 152.81 64.5801L152.81 58.149C153.779 58.8092 154.696 59.4506 155.565 60.0756C161.266 64.1775 164.531 67.3406 166.514 70.203C170.193 75.5162 170.222 80.6271 170.296 94.0134L170.334 100.541C170.328 100.572 170.325 100.603 170.326 100.635L170.34 103.556Z" stroke="#042A21" stroke-width="2" mask="url(#path-2-outside-1_168_17)"/>
<path d="M156.439 173.969C156.234 173.97 156.052 174.092 155.986 174.274L152.182 184.671C152.074 184.964 152.308 185.27 152.639 185.268L159.239 185.236L159.239 185.245L165.256 185.21C166.179 185.205 167.087 185.203 167.981 185.201C179.279 185.172 188.374 185.15 196.942 179.216C201.412 176.12 205.48 171.638 209.896 165.502C214.324 159.347 217.695 154.433 223.943 143.698V140.449L217.045 131.683L215.026 135.047L215.024 135.046C212.159 139.969 209.599 144.269 207.271 148.032L190.296 148.115C189.916 148.117 189.688 148.512 189.894 148.811C189.894 148.811 192.469 156.428 193.546 156.439C194.624 156.45 195.251 156.439 195.414 156.439L201.845 156.439C201.185 157.408 200.544 158.325 199.919 159.194C195.817 164.895 192.654 168.16 189.791 170.143C184.478 173.822 179.367 173.851 165.981 173.926L159.453 173.963C159.423 173.957 159.392 173.955 159.36 173.955L156.439 173.969Z" stroke="#042A21" stroke-width="2" mask="url(#path-2-outside-1_168_17)"/>
<path d="M99.4148 89.398C99.6195 89.397 99.8012 89.2747 99.8676 89.0932L103.672 78.6963C103.78 78.4025 103.546 78.0971 103.214 78.0987L96.6151 78.131L96.615 78.1223L90.5981 78.1565C89.6752 78.1618 88.7669 78.164 87.8724 78.1663C76.5743 78.1946 67.4795 78.2174 58.9114 84.1513C54.4418 87.2467 50.3735 91.7288 45.9581 97.8654C41.5299 104.02 38.1588 108.934 31.9107 119.669V122.918L38.8092 131.683L40.8278 128.32L40.83 128.321C43.6949 123.398 46.2549 119.098 48.5824 115.335L65.558 115.252C65.9382 115.25 66.1661 114.855 65.9597 114.556C65.9597 114.556 63.3852 106.939 62.3073 106.928C61.2294 106.917 60.6028 106.928 60.4394 106.928L54.0082 106.928C54.6685 105.959 55.3098 105.042 55.9348 104.173C60.0368 98.4723 63.1998 95.2066 66.0622 93.2242C71.3754 89.5446 76.4863 89.516 89.8725 89.4413L96.4004 89.4043C96.4307 89.4097 96.4619 89.4124 96.4938 89.4123L99.4148 89.398Z" stroke="#042A21" stroke-width="2" mask="url(#path-2-outside-1_168_17)"/>
<path d="M216.383 123.444C216.327 122.88 216.732 122.369 217.296 122.307L226.166 121.334C226.729 121.273 227.236 121.682 227.292 122.246C231.986 169.035 203.54 211.727 160.769 226.618C160.152 226.832 159.497 226.416 159.425 225.767L158.407 216.64C158.355 216.17 158.633 215.724 159.076 215.558C196.045 201.72 220.437 164.35 216.383 123.444Z" stroke="#042A21" stroke-width="2" mask="url(#path-2-outside-1_168_17)"/>
<path d="M222.439 99.8651C222.649 100.481 222.232 101.132 221.585 101.203L212.468 102.203C211.995 102.255 211.549 101.973 211.386 101.527C197.733 64.2238 160.19 39.5435 119.068 43.6091C118.505 43.6647 117.995 43.2604 117.932 42.6979L116.944 33.8292C116.881 33.2659 117.291 32.7575 117.855 32.701C164.874 27.988 207.754 56.7405 222.439 99.8651Z" stroke="#042A21" stroke-width="2" mask="url(#path-2-outside-1_168_17)"/>
<path d="M96.0703 38.6607C95.9979 38.0113 95.3421 37.595 94.7253 37.8105C52.1888 52.6713 23.8505 95.0396 28.2464 141.563C28.3 142.131 28.8119 142.544 29.3786 142.479L38.2455 141.46C38.8037 141.395 39.2054 140.891 39.1538 140.331C35.4076 99.7033 59.6928 62.67 96.4202 48.8713C96.8628 48.705 97.1403 48.2602 97.0879 47.7903L96.0703 38.6607Z" stroke="#042A21" stroke-width="2" mask="url(#path-2-outside-1_168_17)"/>
<path d="M33.8118 162.616C33.1699 162.689 32.756 163.334 32.9605 163.947C47.4467 207.362 90.4473 236.383 137.636 231.702C138.201 231.646 138.612 231.137 138.549 230.574L137.56 221.705C137.498 221.143 136.988 220.739 136.425 220.794C95.1192 224.83 57.4415 199.867 43.9887 162.254C43.827 161.801 43.3756 161.516 42.8985 161.571L33.8118 162.616Z" stroke="#042A21" stroke-width="2" mask="url(#path-2-outside-1_168_17)"/>
<defs>
<linearGradient id="paint0_linear_168_17" x1="127.919" y1="264.232" x2="127.919" y2="0" gradientUnits="userSpaceOnUse">
<stop offset="0.813333" stop-color="#18B17E"/>
<stop offset="1" stop-color="#90DAB8" stop-opacity="0.98"/>
</linearGradient>
<linearGradient id="paint1_linear_168_17" x1="127.919" y1="0" x2="127.919" y2="264.232" gradientUnits="userSpaceOnUse">
<stop stop-color="#90DAB8"/>
<stop offset="1" stop-color="#86DACE" stop-opacity="0.35"/>
</linearGradient>
</defs>
</svg>
